<svg width="200" height="100" viewBox="0 0 200 100" fill="none" xmlns="http://www.w3.org/2000/svg">
<rect x="0.5" y="0.5" width="199" height="99" rx="9.5" fill="#FFE6A9" stroke="#A7A8A9"/>
<path d="M72.5206 49.312C72.5206 49.4613 72.446 49.536 72.2966 49.536H71.6406C71.4913 49.536 71.4166 49.4613 71.4166 49.312V43.68H68.0246C67.8753 44.0107 67.6993 44.32 67.4966 44.608C67.294 44.896 67.054 45.1467 66.7766 45.36C66.51 45.5627 66.206 45.7227 65.8646 45.84C65.5233 45.9573 65.1446 46.016 64.7286 46.016C64.0246 46.016 63.4273 45.8613 62.9366 45.552C62.4566 45.2427 62.0673 44.8427 61.7686 44.352C61.4806 43.8507 61.2726 43.296 61.1446 42.688C61.0166 42.08 60.9526 41.4773 60.9526 40.88C60.9526 40.2507 61.0166 39.632 61.1446 39.024C61.2726 38.4053 61.4806 37.8507 61.7686 37.36C62.0673 36.8693 62.4566 36.4747 62.9366 36.176C63.4273 35.8773 64.0246 35.728 64.7286 35.728C65.1446 35.728 65.518 35.7867 65.8486 35.904C66.19 36.0107 66.494 36.1653 66.7606 36.368C67.038 36.5707 67.278 36.8107 67.4806 37.088C67.6833 37.3653 67.8593 37.6693 68.0086 38H71.4166V35.008C71.4166 34.8587 71.4913 34.784 71.6406 34.784H72.2966C72.446 34.784 72.5206 34.8587 72.5206 35.008V49.312ZM67.4326 40.864C67.4326 40.384 67.3793 39.8987 67.2726 39.408C67.1766 38.9173 67.022 38.4747 66.8086 38.08C66.5953 37.6853 66.318 37.3653 65.9766 37.12C65.6353 36.8747 65.2193 36.752 64.7286 36.752C64.2166 36.752 63.79 36.8747 63.4486 37.12C63.118 37.3653 62.8513 37.6853 62.6486 38.08C62.446 38.4747 62.302 38.9173 62.2166 39.408C62.1313 39.8987 62.0886 40.384 62.0886 40.864C62.0886 41.3227 62.126 41.7973 62.2006 42.288C62.286 42.7787 62.43 43.2267 62.6326 43.632C62.8353 44.0267 63.1073 44.352 63.4486 44.608C63.79 44.864 64.2166 44.992 64.7286 44.992C65.2193 44.992 65.6353 44.864 65.9766 44.608C66.318 44.352 66.5953 44.0267 66.8086 43.632C67.022 43.2267 67.1766 42.7787 67.2726 42.288C67.3793 41.7973 67.4326 41.3227 67.4326 40.864ZM68.5686 40.88C68.5686 41.5093 68.4886 42.128 68.3286 42.736H71.4166V38.944H68.3286C68.4886 39.5733 68.5686 40.2187 68.5686 40.88ZM87.5675 49.312C87.5675 49.4613 87.4928 49.536 87.3435 49.536H86.6875C86.5382 49.536 86.4635 49.4613 86.4635 49.312V35.008C86.4635 34.8587 86.5382 34.784 86.6875 34.784H87.3435C87.4928 34.784 87.5675 34.8587 87.5675 35.008V49.312ZM83.2795 37.136C83.2262 38.0533 83.0448 38.9547 82.7355 39.84C82.4262 40.7253 81.9942 41.5733 81.4395 42.384C80.8955 43.184 80.2342 43.9307 79.4555 44.624C78.6875 45.3067 77.8128 45.9093 76.8315 46.432C76.6928 46.5067 76.5915 46.4907 76.5275 46.384L76.1755 45.824C76.1008 45.696 76.1222 45.6053 76.2395 45.552C77.1462 45.0827 77.9462 44.5493 78.6395 43.952C79.3435 43.344 79.9408 42.688 80.4315 41.984C80.9328 41.28 81.3275 40.5387 81.6155 39.76C81.9035 38.9813 82.0848 38.1813 82.1595 37.36C82.1808 37.2 82.1595 37.0933 82.0955 37.04C82.0315 36.976 81.9248 36.944 81.7755 36.944H76.6875C76.5595 36.944 76.4955 36.8747 76.4955 36.736V36.176C76.4955 36.048 76.5595 35.984 76.6875 35.984H82.0795C82.5808 35.984 82.9115 36.08 83.0715 36.272C83.2315 36.4533 83.3008 36.7413 83.2795 37.136ZM104.054 41.6C104.108 41.6 104.161 41.6213 104.214 41.664C104.268 41.696 104.294 41.744 104.294 41.808V42.352C104.294 42.4053 104.268 42.4533 104.214 42.496C104.161 42.5387 104.108 42.56 104.054 42.56H90.4544C90.3904 42.56 90.3317 42.5387 90.2784 42.496C90.2357 42.4533 90.2144 42.4053 90.2144 42.352V41.808C90.2144 41.744 90.2357 41.696 90.2784 41.664C90.3317 41.6213 90.3904 41.6 90.4544 41.6H104.054ZM102.39 49.248C102.39 49.3013 102.364 49.344 102.31 49.376C102.268 49.4187 102.225 49.44 102.182 49.44H93.6544C93.153 49.44 92.8224 49.344 92.6624 49.152C92.513 48.9707 92.4384 48.656 92.4384 48.208V47.264C92.4384 46.816 92.529 46.5173 92.7104 46.368C92.9024 46.208 93.2384 46.128 93.7184 46.128H100.614C100.764 46.128 100.854 46.1067 100.886 46.064C100.929 46.0213 100.95 45.92 100.95 45.76V45.152C100.95 44.992 100.929 44.8907 100.886 44.848C100.854 44.8053 100.764 44.784 100.614 44.784H92.6304C92.577 44.784 92.5237 44.768 92.4704 44.736C92.4277 44.704 92.4064 44.6613 92.4064 44.608V44.048C92.4064 43.9947 92.4277 43.952 92.4704 43.92C92.5237 43.888 92.577 43.872 92.6304 43.872H100.774C101.03 43.872 101.238 43.8933 101.398 43.936C101.558 43.968 101.686 44.0267 101.782 44.112C101.878 44.1973 101.942 44.32 101.974 44.48C102.017 44.6293 102.038 44.816 102.038 45.04V45.904C102.038 46.352 101.942 46.656 101.75 46.816C101.569 46.9653 101.238 47.04 100.758 47.04H93.8624C93.713 47.04 93.617 47.0613 93.5744 47.104C93.5424 47.1467 93.5264 47.248 93.5264 47.408V48.144C93.5264 48.2933 93.5477 48.3893 93.5904 48.432C93.633 48.4853 93.729 48.512 93.8784 48.512H102.166C102.22 48.512 102.268 48.528 102.31 48.56C102.364 48.592 102.39 48.6347 102.39 48.688V49.248ZM102.262 40.096C102.262 40.1493 102.236 40.1973 102.182 40.24C102.14 40.272 102.097 40.288 102.054 40.288H93.7184C93.217 40.288 92.8864 40.1973 92.7264 40.016C92.577 39.824 92.5024 39.504 92.5024 39.056V38.192C92.5024 37.744 92.593 37.4453 92.7744 37.296C92.9664 37.136 93.3024 37.056 93.7824 37.056H100.566C100.716 37.056 100.806 37.04 100.838 37.008C100.881 36.9653 100.902 36.8587 100.902 36.688V36.032C100.902 35.872 100.881 35.7707 100.838 35.728C100.806 35.6853 100.716 35.664 100.566 35.664H92.7264C92.673 35.664 92.6197 35.648 92.5664 35.616C92.5237 35.584 92.5024 35.5413 92.5024 35.488V34.912C92.5024 34.8587 92.5237 34.816 92.5664 34.784C92.6197 34.752 92.673 34.736 92.7264 34.736H100.742C100.998 34.736 101.206 34.7573 101.366 34.8C101.526 34.832 101.654 34.8907 101.75 34.976C101.846 35.0613 101.91 35.184 101.942 35.344C101.985 35.4933 102.006 35.68 102.006 35.904V36.832C102.006 37.2907 101.91 37.5947 101.718 37.744C101.537 37.8933 101.206 37.968 100.726 37.968H93.9264C93.777 37.968 93.681 37.9893 93.6384 38.032C93.6064 38.0747 93.5904 38.176 93.5904 38.336V39.008C93.5904 39.1573 93.6117 39.2587 93.6544 39.312C93.697 39.3547 93.793 39.376 93.9424 39.376H102.038C102.092 39.376 102.14 39.392 102.182 39.424C102.236 39.456 102.262 39.4987 102.262 39.552V40.096ZM121.906 49.248C121.906 49.3013 121.879 49.344 121.826 49.376C121.783 49.4187 121.74 49.44 121.698 49.44H113.186C112.684 49.44 112.354 49.344 112.194 49.152C112.044 48.9707 111.97 48.656 111.97 48.208V47.184C111.97 46.736 112.06 46.4373 112.242 46.288C112.434 46.128 112.77 46.048 113.25 46.048H120.13C120.279 46.048 120.375 46.0267 120.418 45.984C120.46 45.9413 120.482 45.84 120.482 45.68V44.912C120.482 44.752 120.46 44.6507 120.418 44.608C120.386 44.5653 120.295 44.544 120.146 44.544H112.162C112.108 44.544 112.055 44.528 112.002 44.496C111.959 44.464 111.938 44.4213 111.938 44.368V43.808C111.938 43.7547 111.959 43.712 112.002 43.68C112.055 43.648 112.108 43.632 112.162 43.632H116.21V42.064H109.986C109.922 42.064 109.863 42.0427 109.81 42C109.767 41.9573 109.746 41.9093 109.746 41.856V41.312C109.746 41.248 109.767 41.2 109.81 41.168C109.863 41.1253 109.922 41.104 109.986 41.104H123.586C123.639 41.104 123.692 41.1253 123.746 41.168C123.799 41.2 123.826 41.248 123.826 41.312V41.856C123.826 41.9093 123.799 41.9573 123.746 42C123.692 42.0427 123.639 42.064 123.586 42.064H117.314V43.632H120.306C120.562 43.632 120.77 43.6533 120.93 43.696C121.09 43.728 121.218 43.7867 121.314 43.872C121.41 43.9573 121.474 44.08 121.506 44.24C121.548 44.3893 121.57 44.576 121.57 44.8V45.824C121.57 46.272 121.474 46.576 121.282 46.736C121.1 46.8853 120.77 46.96 120.29 46.96H113.394C113.244 46.96 113.148 46.9813 113.106 47.024C113.074 47.0667 113.058 47.168 113.058 47.328V48.144C113.058 48.2933 113.079 48.3893 113.122 48.432C113.164 48.4853 113.26 48.512 113.41 48.512H121.682C121.735 48.512 121.783 48.528 121.826 48.56C121.879 48.592 121.906 48.6347 121.906 48.688V49.248ZM121.858 39.472C121.858 39.536 121.831 39.584 121.778 39.616C121.724 39.648 121.671 39.664 121.618 39.664H113.314C112.812 39.664 112.482 39.5627 112.322 39.36C112.172 39.1467 112.098 38.8213 112.098 38.384V34.928C112.098 34.7787 112.172 34.704 112.322 34.704H112.978C113.127 34.704 113.202 34.7787 113.202 34.928V38.352C113.202 38.5013 113.223 38.5973 113.266 38.64C113.319 38.6827 113.42 38.704 113.57 38.704H121.618C121.671 38.704 121.724 38.7253 121.778 38.768C121.831 38.8 121.858 38.8427 121.858 38.896V39.472ZM127.193 45.92C126.713 45.8987 126.387 45.8027 126.217 45.632C126.057 45.4507 125.977 45.136 125.977 44.688V41.504C125.977 41.056 126.067 40.7573 126.249 40.608C126.441 40.448 126.777 40.368 127.257 40.368H130.713C130.862 40.368 130.958 40.3467 131.001 40.304C131.043 40.2613 131.065 40.16 131.065 40V37.312C131.065 37.152 131.043 37.0507 131.001 37.008C130.969 36.9653 130.878 36.944 130.729 36.944H126.265C126.211 36.944 126.158 36.928 126.105 36.896C126.062 36.864 126.041 36.8213 126.041 36.768V36.16C126.041 36.1067 126.062 36.064 126.105 36.032C126.158 36 126.211 35.984 126.265 35.984H130.905C131.161 35.984 131.369 36.0053 131.529 36.048C131.689 36.08 131.817 36.1387 131.913 36.224C132.009 36.3093 132.073 36.432 132.105 36.592C132.147 36.7413 132.169 36.928 132.169 37.152V40.192C132.169 40.64 132.073 40.944 131.881 41.104C131.699 41.2533 131.369 41.328 130.889 41.328H127.417C127.267 41.328 127.171 41.3493 127.129 41.392C127.097 41.4347 127.081 41.536 127.081 41.696V44.608C127.081 44.8533 127.198 44.976 127.433 44.976C128.467 44.9973 129.459 44.9707 130.409 44.896C131.369 44.8107 132.355 44.6613 133.369 44.448C133.518 44.416 133.609 44.4693 133.641 44.608L133.737 45.136C133.758 45.2853 133.689 45.376 133.529 45.408C132.569 45.6107 131.539 45.76 130.441 45.856C129.342 45.952 128.259 45.9733 127.193 45.92ZM136.089 40.432V35.008C136.089 34.8587 136.163 34.784 136.313 34.784H136.969C137.118 34.784 137.193 34.8587 137.193 35.008V49.312C137.193 49.4613 137.118 49.536 136.969 49.536H136.313C136.163 49.536 136.089 49.4613 136.089 49.312V41.392H133.145C133.006 41.392 132.937 41.328 132.937 41.2V40.624C132.937 40.496 133.006 40.432 133.145 40.432H136.089ZM30.7106 58.048C30.764 58.048 30.8173 58.0693 30.8706 58.112C30.924 58.144 30.9506 58.192 30.9506 58.256V58.8C30.9506 58.8533 30.924 58.9013 30.8706 58.944C30.8173 58.9867 30.764 59.008 30.7106 59.008H17.1106C17.0466 59.008 16.988 58.9867 16.9346 58.944C16.892 58.9013 16.8706 58.8533 16.8706 58.8V58.256C16.8706 58.192 16.892 58.144 16.9346 58.112C16.988 58.0693 17.0466 58.048 17.1106 58.048H30.7106ZM23.8786 56.624C23.3453 56.624 22.7853 56.5813 22.1986 56.496C21.612 56.4 21.0733 56.2453 20.5826 56.032C20.1026 55.8187 19.7026 55.5307 19.3826 55.168C19.0626 54.7947 18.9026 54.336 18.9026 53.792C18.9026 53.248 19.0626 52.8 19.3826 52.448C19.7026 52.0853 20.1026 51.7973 20.5826 51.584C21.0733 51.36 21.612 51.2053 22.1986 51.12C22.7853 51.024 23.3453 50.976 23.8786 50.976C24.4226 50.976 24.988 51.0293 25.5746 51.136C26.1613 51.2427 26.6946 51.408 27.1746 51.632C27.6653 51.856 28.0653 52.1493 28.3746 52.512C28.6946 52.864 28.8546 53.2907 28.8546 53.792C28.8546 54.304 28.6946 54.7413 28.3746 55.104C28.0653 55.456 27.6653 55.744 27.1746 55.968C26.684 56.192 26.1453 56.3573 25.5586 56.464C24.9826 56.5707 24.4226 56.624 23.8786 56.624ZM23.8786 51.952C23.5053 51.952 23.0946 51.984 22.6466 52.048C22.2093 52.112 21.7986 52.2187 21.4146 52.368C21.0306 52.5067 20.7106 52.6933 20.4546 52.928C20.1986 53.1627 20.0706 53.456 20.0706 53.808C20.0706 54.16 20.1986 54.4533 20.4546 54.688C20.7106 54.9227 21.0306 55.1147 21.4146 55.264C21.7986 55.4027 22.2093 55.504 22.6466 55.568C23.0946 55.6213 23.5053 55.648 23.8786 55.648C24.2413 55.648 24.6413 55.6213 25.0786 55.568C25.5266 55.504 25.9426 55.4027 26.3266 55.264C26.7106 55.1147 27.0306 54.9227 27.2866 54.688C27.5533 54.4533 27.6866 54.16 27.6866 53.808C27.6866 53.456 27.5533 53.1627 27.2866 52.928C27.0306 52.6933 26.7106 52.5067 26.3266 52.368C25.9426 52.2187 25.5266 52.112 25.0786 52.048C24.6413 51.984 24.2413 51.952 23.8786 51.952ZM28.8706 62.896C28.8706 63.2587 28.7906 63.5787 28.6306 63.856C28.4706 64.1227 28.2573 64.3573 27.9906 64.56C27.724 64.7733 27.4146 64.9493 27.0626 65.088C26.7213 65.2267 26.364 65.3333 25.9906 65.408C25.628 65.4933 25.26 65.552 24.8866 65.584C24.524 65.6267 24.188 65.648 23.8786 65.648C23.58 65.648 23.244 65.6267 22.8706 65.584C22.508 65.552 22.14 65.4933 21.7666 65.408C21.404 65.3333 21.0466 65.2267 20.6946 65.088C20.3533 64.9493 20.0493 64.7733 19.7826 64.56C19.516 64.3573 19.3026 64.1227 19.1426 63.856C18.9826 63.5787 18.9026 63.2587 18.9026 62.896C18.9026 62.544 18.9826 62.2347 19.1426 61.968C19.3026 61.6907 19.516 61.4507 19.7826 61.248C20.0493 61.0453 20.3533 60.8747 20.6946 60.736C21.0466 60.5973 21.404 60.4853 21.7666 60.4C22.14 60.3147 22.508 60.256 22.8706 60.224C23.2333 60.1813 23.5693 60.16 23.8786 60.16C24.188 60.16 24.524 60.1813 24.8866 60.224C25.26 60.256 25.6333 60.3147 26.0066 60.4C26.38 60.4747 26.7373 60.5813 27.0786 60.72C27.42 60.8587 27.724 61.0293 27.9906 61.232C28.2573 61.4347 28.4706 61.6747 28.6306 61.952C28.7906 62.2293 28.8706 62.544 28.8706 62.896ZM27.7026 62.912C27.7026 62.5493 27.5586 62.2507 27.2706 62.016C26.9826 61.7813 26.6306 61.6 26.2146 61.472C25.8093 61.3333 25.388 61.2427 24.9506 61.2C24.524 61.1467 24.1666 61.12 23.8786 61.12C23.58 61.12 23.212 61.1467 22.7746 61.2C22.348 61.2427 21.932 61.3333 21.5266 61.472C21.132 61.6 20.7906 61.7813 20.5026 62.016C20.2146 62.2507 20.0706 62.5493 20.0706 62.912C20.0706 63.2747 20.2146 63.5733 20.5026 63.808C20.7906 64.032 21.132 64.208 21.5266 64.336C21.932 64.464 22.348 64.5493 22.7746 64.592C23.212 64.6453 23.58 64.672 23.8786 64.672C24.1666 64.672 24.524 64.6453 24.9506 64.592C25.388 64.5493 25.8093 64.464 26.2146 64.336C26.6306 64.208 26.9826 64.032 27.2706 63.808C27.5586 63.5733 27.7026 63.2747 27.7026 62.912ZM40.5415 54.048C40.5415 54.4533 40.4508 54.832 40.2695 55.184C40.0882 55.536 39.8322 55.8453 39.5015 56.112C39.1815 56.368 38.7975 56.576 38.3495 56.736C37.9015 56.8853 37.4162 56.96 36.8935 56.96C36.3815 56.96 35.9068 56.8853 35.4695 56.736C35.0322 56.5867 34.6535 56.3787 34.3335 56.112C34.0135 55.8453 33.7628 55.536 33.5815 55.184C33.4002 54.832 33.3095 54.4533 33.3095 54.048C33.3095 53.6 33.4002 53.1947 33.5815 52.832C33.7628 52.4693 34.0135 52.16 34.3335 51.904C34.6535 51.648 35.0322 51.456 35.4695 51.328C35.9068 51.1893 36.3815 51.12 36.8935 51.12C37.3842 51.12 37.8482 51.1893 38.2855 51.328C38.7228 51.4667 39.1068 51.664 39.4375 51.92C39.7788 52.1653 40.0455 52.4693 40.2375 52.832C40.4402 53.1947 40.5415 53.6 40.5415 54.048ZM43.2135 59.712V51.008C43.2135 50.8587 43.2882 50.784 43.4375 50.784H44.0935C44.2428 50.784 44.3175 50.8587 44.3175 51.008V62.448C44.3175 62.5973 44.2428 62.672 44.0935 62.672H43.4375C43.2882 62.672 43.2135 62.5973 43.2135 62.448V60.672H40.0135C39.8748 60.672 39.8055 60.608 39.8055 60.48V59.904C39.8055 59.776 39.8748 59.712 40.0135 59.712H43.2135ZM39.4855 54.032C39.4855 53.712 39.4162 53.4293 39.2775 53.184C39.1388 52.9387 38.9522 52.736 38.7175 52.576C38.4828 52.4053 38.2055 52.2773 37.8855 52.192C37.5762 52.1067 37.2455 52.064 36.8935 52.064C36.5308 52.064 36.1948 52.1067 35.8855 52.192C35.5762 52.2773 35.3095 52.4053 35.0855 52.576C34.8615 52.7467 34.6855 52.9547 34.5575 53.2C34.4295 53.4347 34.3655 53.712 34.3655 54.032C34.3655 54.64 34.5948 55.1253 35.0535 55.488C35.5228 55.8507 36.1362 56.032 36.8935 56.032C37.2455 56.032 37.5762 55.984 37.8855 55.888C38.2055 55.7813 38.4828 55.6427 38.7175 55.472C38.9522 55.2907 39.1388 55.0773 39.2775 54.832C39.4162 54.5867 39.4855 54.32 39.4855 54.032ZM36.5735 61.84C36.5202 61.84 36.4722 61.8187 36.4295 61.776C36.3868 61.7227 36.3655 61.664 36.3655 61.6V59.024C36.0348 59.0453 35.6828 59.0613 35.3095 59.072C34.9362 59.0827 34.5682 59.0933 34.2055 59.104C33.8535 59.1147 33.5175 59.1253 33.1975 59.136C32.8882 59.136 32.6268 59.1307 32.4135 59.12C32.3495 59.12 32.2908 59.0987 32.2375 59.056C32.1948 59.0133 32.1735 58.9653 32.1735 58.912V58.368C32.1735 58.304 32.1948 58.256 32.2375 58.224C32.2908 58.1813 32.3495 58.16 32.4135 58.16C32.7228 58.16 33.0908 58.16 33.5175 58.16C33.9442 58.1493 34.3815 58.1387 34.8295 58.128C35.2775 58.1173 35.7095 58.1067 36.1255 58.096C36.5415 58.0747 36.8935 58.0533 37.1815 58.032C37.5548 58.0107 37.9708 57.9787 38.4295 57.936C38.8882 57.8933 39.3468 57.8453 39.8055 57.792C40.2642 57.7387 40.6962 57.6853 41.1015 57.632C41.5175 57.568 41.8642 57.5093 42.1415 57.456C42.1948 57.4453 42.2428 57.456 42.2855 57.488C42.3388 57.5093 42.3708 57.5413 42.3815 57.584L42.4615 58.128C42.4722 58.256 42.4082 58.336 42.2695 58.368C41.5868 58.4853 40.8188 58.6027 39.9655 58.72C39.1228 58.8267 38.2908 58.9067 37.4695 58.96V61.6C37.4695 61.664 37.4482 61.7227 37.4055 61.776C37.3735 61.8187 37.3255 61.84 37.2615 61.84H36.5735ZM44.7015 65.056C44.7015 65.12 44.6748 65.168 44.6215 65.2C44.5682 65.232 44.5148 65.248 44.4615 65.248H35.7575C35.2562 65.248 34.9255 65.152 34.7655 64.96C34.6162 64.7787 34.5415 64.4693 34.5415 64.032V62.016C34.5415 61.8667 34.6162 61.792 34.7655 61.792H35.4215C35.5708 61.792 35.6455 61.8667 35.6455 62.016V63.952C35.6455 64.1013 35.6668 64.192 35.7095 64.224C35.7628 64.2667 35.8642 64.288 36.0135 64.288H44.4615C44.5148 64.288 44.5682 64.304 44.6215 64.336C44.6748 64.3787 44.7015 64.4267 44.7015 64.48V65.056ZM54.7128 61.616C54.7128 61.168 54.7981 60.8693 54.9688 60.72C55.1394 60.56 55.4594 60.48 55.9288 60.48H62.6328C62.8888 60.48 63.0914 60.496 63.2408 60.528C63.4008 60.56 63.5234 60.6187 63.6088 60.704C63.7048 60.7893 63.7688 60.9067 63.8008 61.056C63.8328 61.2053 63.8488 61.392 63.8488 61.616V64.272C63.8488 64.72 63.7634 65.0187 63.5928 65.168C63.4221 65.328 63.1021 65.408 62.6328 65.408H55.9288C55.6728 65.408 55.4648 65.392 55.3048 65.36C55.1554 65.328 55.0328 65.264 54.9368 65.168C54.8514 65.0827 54.7928 64.9653 54.7608 64.816C54.7288 64.6773 54.7128 64.496 54.7128 64.272V61.616ZM58.9528 55.472C58.7181 55.4933 58.4194 55.5093 58.0568 55.52C57.6941 55.5307 57.3048 55.5413 56.8888 55.552C56.4834 55.552 56.0834 55.5573 55.6888 55.568C55.2941 55.568 54.9474 55.568 54.6488 55.568H53.8968V57.504C53.8968 57.664 53.9234 57.776 53.9768 57.84C54.0301 57.8933 54.1314 57.92 54.2808 57.92C54.7501 57.9307 55.2354 57.9307 55.7368 57.92C56.2488 57.8987 56.7554 57.872 57.2568 57.84C57.7581 57.7973 58.2488 57.7493 58.7288 57.696C59.2194 57.632 59.6781 57.5573 60.1048 57.472C60.2861 57.44 60.3928 57.4987 60.4248 57.648L60.5048 58.112C60.5261 58.208 60.5208 58.2773 60.4888 58.32C60.4568 58.352 60.3928 58.3787 60.2968 58.4C59.8594 58.4853 59.3794 58.5653 58.8568 58.64C58.3341 58.704 57.7954 58.7573 57.2408 58.8C56.6968 58.832 56.1474 58.8587 55.5928 58.88C55.0488 58.9013 54.5314 58.9067 54.0408 58.896C53.5608 58.8853 53.2301 58.7787 53.0488 58.576C52.8781 58.3627 52.7928 58.032 52.7928 57.584V52.592C52.7928 52.144 52.8781 51.8453 53.0488 51.696C53.2194 51.5467 53.5394 51.472 54.0088 51.472H59.0648C59.2034 51.472 59.2728 51.536 59.2728 51.664V52.24C59.2728 52.368 59.2034 52.432 59.0648 52.432H54.2168C54.0674 52.432 53.9768 52.4533 53.9448 52.496C53.9128 52.528 53.8968 52.624 53.8968 52.784V54.64H54.6488C54.9368 54.64 55.2728 54.64 55.6568 54.64C56.0408 54.64 56.4301 54.6347 56.8248 54.624C57.2301 54.6133 57.6141 54.6027 57.9768 54.592C58.3501 54.5813 58.6701 54.5653 58.9368 54.544C59.0754 54.544 59.1448 54.608 59.1448 54.736L59.1608 55.28C59.1608 55.3867 59.0914 55.4507 58.9528 55.472ZM56.2008 61.44C56.0514 61.44 55.9501 61.472 55.8968 61.536C55.8434 61.5893 55.8168 61.696 55.8168 61.856V64.032C55.8168 64.192 55.8434 64.2987 55.8968 64.352C55.9501 64.416 56.0514 64.448 56.2008 64.448H62.3608C62.5101 64.448 62.6114 64.416 62.6648 64.352C62.7181 64.2987 62.7448 64.192 62.7448 64.032V61.856C62.7448 61.696 62.7181 61.5893 62.6648 61.536C62.6114 61.472 62.5101 61.44 62.3608 61.44H56.2008ZM63.8488 59.328C63.8488 59.4773 63.7741 59.552 63.6248 59.552H62.9688C62.8194 59.552 62.7448 59.4773 62.7448 59.328V51.008C62.7448 50.8587 62.8194 50.784 62.9688 50.784H63.6248C63.7741 50.784 63.8488 50.8587 63.8488 51.008V59.328ZM73.5196 56.112C73.0183 56.112 72.4796 56.0747 71.9036 56C71.3276 55.9253 70.7943 55.7867 70.3036 55.584C69.813 55.3707 69.4076 55.088 69.0876 54.736C68.7676 54.384 68.6076 53.9253 68.6076 53.36C68.6076 52.8053 68.7676 52.352 69.0876 52C69.4076 51.648 69.813 51.3707 70.3036 51.168C70.7943 50.9653 71.3276 50.8267 71.9036 50.752C72.4796 50.6667 73.0183 50.624 73.5196 50.624C74.0423 50.624 74.5916 50.6613 75.1676 50.736C75.7436 50.8107 76.2716 50.9493 76.7516 51.152C77.2423 51.3547 77.6423 51.6373 77.9516 52C78.2716 52.352 78.4316 52.8053 78.4316 53.36C78.4316 53.9253 78.2716 54.384 77.9516 54.736C77.6316 55.088 77.2263 55.3707 76.7356 55.584C76.2556 55.7867 75.7276 55.9253 75.1516 56C74.5756 56.0747 74.0316 56.112 73.5196 56.112ZM73.5196 51.6C73.1783 51.6 72.789 51.6213 72.3516 51.664C71.925 51.7067 71.5196 51.792 71.1356 51.92C70.7516 52.048 70.4263 52.2293 70.1596 52.464C69.9036 52.6987 69.7756 53.0027 69.7756 53.376C69.7756 53.7493 69.9036 54.0533 70.1596 54.288C70.4263 54.512 70.7516 54.688 71.1356 54.816C71.5196 54.944 71.925 55.0293 72.3516 55.072C72.789 55.1147 73.1783 55.136 73.5196 55.136C73.861 55.136 74.245 55.1147 74.6716 55.072C75.109 55.0293 75.5196 54.944 75.9036 54.816C76.2876 54.688 76.6076 54.512 76.8636 54.288C77.1303 54.0533 77.2636 53.7493 77.2636 53.376C77.2636 53.0027 77.1303 52.6987 76.8636 52.464C76.597 52.2293 76.2716 52.048 75.8876 51.92C75.5036 51.792 75.093 51.7067 74.6556 51.664C74.229 51.6213 73.8503 51.6 73.5196 51.6ZM80.3356 57.088C80.389 57.088 80.4423 57.1093 80.4956 57.152C80.549 57.184 80.5756 57.232 80.5756 57.296V57.84C80.5756 57.8933 80.549 57.9413 80.4956 57.984C80.4423 58.0267 80.389 58.048 80.3356 58.048H66.7356C66.6716 58.048 66.613 58.0267 66.5596 57.984C66.517 57.9413 66.4956 57.8933 66.4956 57.84V57.296C66.4956 57.232 66.517 57.184 66.5596 57.152C66.613 57.1093 66.6716 57.088 66.7356 57.088H80.3356ZM78.6556 65.248C78.6556 65.3013 78.629 65.344 78.5756 65.376C78.533 65.4187 78.4903 65.44 78.4476 65.44H69.9356C69.4343 65.44 69.1036 65.344 68.9436 65.152C68.7943 64.9707 68.7196 64.656 68.7196 64.208V63.056C68.7196 62.608 68.8103 62.3093 68.9916 62.16C69.1836 62 69.5196 61.92 69.9996 61.92H76.8796C77.029 61.92 77.125 61.8987 77.1676 61.856C77.2103 61.8133 77.2316 61.712 77.2316 61.552V60.656C77.2316 60.496 77.2103 60.3947 77.1676 60.352C77.1356 60.3093 77.045 60.288 76.8956 60.288H68.9116C68.8583 60.288 68.805 60.272 68.7516 60.24C68.709 60.208 68.6876 60.1653 68.6876 60.112V59.552C68.6876 59.4987 68.709 59.456 68.7516 59.424C68.805 59.392 68.8583 59.376 68.9116 59.376H77.0556C77.3116 59.376 77.5196 59.3973 77.6796 59.44C77.8396 59.472 77.9676 59.5307 78.0636 59.616C78.1596 59.7013 78.2236 59.824 78.2556 59.984C78.2983 60.1333 78.3196 60.32 78.3196 60.544V61.696C78.3196 62.144 78.2236 62.448 78.0316 62.608C77.8503 62.7573 77.5196 62.832 77.0396 62.832H70.1436C69.9943 62.832 69.8983 62.8533 69.8556 62.896C69.8236 62.9387 69.8076 63.04 69.8076 63.2V64.144C69.8076 64.2933 69.829 64.3893 69.8716 64.432C69.9143 64.4853 70.0103 64.512 70.1596 64.512H78.4316C78.485 64.512 78.533 64.528 78.5756 64.56C78.629 64.592 78.6556 64.6347 78.6556 64.688V65.248ZM91.4989 51.52C91.4989 51.936 91.4722 52.3413 91.4189 52.736C91.3762 53.1307 91.3122 53.5147 91.2269 53.888C91.3549 54.3253 91.5362 54.7627 91.7709 55.2C92.0162 55.6267 92.2989 56.0373 92.6189 56.432C92.9495 56.816 93.3069 57.168 93.6909 57.488C94.0749 57.7973 94.4695 58.048 94.8749 58.24C94.9389 58.272 94.9655 58.3147 94.9549 58.368C94.9549 58.4213 94.9442 58.4747 94.9229 58.528L94.6029 59.056C94.5709 59.1093 94.5335 59.1467 94.4909 59.168C94.4482 59.1893 94.3789 59.1733 94.2829 59.12C93.9735 58.9707 93.6482 58.7573 93.3069 58.48C92.9762 58.2027 92.6455 57.8987 92.3149 57.568C91.9949 57.2267 91.6962 56.8693 91.4189 56.496C91.1415 56.112 90.9122 55.744 90.7309 55.392C90.3682 56.256 89.8882 57.0453 89.2909 57.76C88.7042 58.464 88.0109 59.0773 87.2109 59.6C87.1575 59.632 87.0989 59.6533 87.0349 59.664C86.9709 59.6747 86.9175 59.6533 86.8749 59.6L86.4749 59.072C86.4429 59.0293 86.4375 58.976 86.4589 58.912C86.4802 58.848 86.5175 58.8 86.5709 58.768C87.1469 58.416 87.6695 57.9787 88.1389 57.456C88.6189 56.9333 89.0242 56.3573 89.3549 55.728C89.6962 55.0987 89.9522 54.4267 90.1229 53.712C90.3042 52.9867 90.3895 52.2507 90.3789 51.504C90.3789 51.3333 90.4429 51.248 90.5709 51.248L91.3229 51.296C91.4402 51.296 91.4989 51.3707 91.4989 51.52ZM97.3229 54.608V51.008C97.3229 50.8587 97.3975 50.784 97.5469 50.784H98.2029C98.3522 50.784 98.4269 50.8587 98.4269 51.008V61.216C98.4269 61.3653 98.3522 61.44 98.2029 61.44H97.5469C97.3975 61.44 97.3229 61.3653 97.3229 61.216V55.568H94.0269C93.8882 55.568 93.8189 55.504 93.8189 55.376V54.8C93.8189 54.672 93.8882 54.608 94.0269 54.608H97.3229ZM98.9069 65.056C98.9069 65.12 98.8802 65.168 98.8269 65.2C98.7735 65.232 98.7202 65.248 98.6669 65.248H90.6509C90.1495 65.248 89.8189 65.152 89.6589 64.96C89.5095 64.7787 89.4349 64.4693 89.4349 64.032V60.896C89.4349 60.7467 89.5095 60.672 89.6589 60.672H90.3149C90.4642 60.672 90.5389 60.7467 90.5389 60.896V63.952C90.5389 64.1013 90.5602 64.192 90.6029 64.224C90.6562 64.2667 90.7575 64.288 90.9069 64.288H98.6669C98.7202 64.288 98.7735 64.304 98.8269 64.336C98.8802 64.3787 98.9069 64.4267 98.9069 64.48V65.056ZM107.394 55.712C106.818 55.7547 106.242 55.7867 105.666 55.808C105.1 55.8293 104.514 55.8293 103.906 55.808H102.994V57.744C102.994 57.904 103.02 58.016 103.074 58.08C103.127 58.1333 103.228 58.16 103.378 58.16C103.836 58.1707 104.274 58.1707 104.69 58.16C105.116 58.1493 105.532 58.1227 105.938 58.08C106.343 58.0373 106.748 57.9893 107.154 57.936C107.57 57.872 107.996 57.7973 108.434 57.712C108.615 57.68 108.722 57.7387 108.754 57.888L108.834 58.352C108.855 58.448 108.85 58.5173 108.818 58.56C108.786 58.592 108.722 58.6187 108.626 58.64C107.772 58.8107 106.898 58.944 106.002 59.04C105.106 59.1253 104.151 59.1573 103.138 59.136C102.658 59.1253 102.327 59.0187 102.146 58.816C101.975 58.6027 101.89 58.272 101.89 57.824V52.832C101.89 52.384 101.975 52.0853 102.146 51.936C102.316 51.7867 102.636 51.712 103.106 51.712H107.426C107.564 51.712 107.634 51.776 107.634 51.904V52.48C107.634 52.608 107.564 52.672 107.426 52.672H103.314C103.164 52.672 103.074 52.6933 103.042 52.736C103.01 52.768 102.994 52.864 102.994 53.024V54.88H103.906C104.514 54.88 105.106 54.8747 105.682 54.864C106.268 54.8533 106.834 54.8267 107.378 54.784C107.442 54.7733 107.49 54.7893 107.522 54.832C107.564 54.8747 107.586 54.9227 107.586 54.976L107.602 55.52C107.602 55.6267 107.532 55.6907 107.394 55.712ZM110.914 54.976H112.946V51.008C112.946 50.8587 113.02 50.784 113.17 50.784H113.778C113.927 50.784 114.002 50.8587 114.002 51.008V59.552C114.002 59.7013 113.927 59.776 113.778 59.776H113.17C113.02 59.776 112.946 59.7013 112.946 59.552V55.936H110.914V59.344C110.914 59.4933 110.839 59.568 110.69 59.568H110.082C109.932 59.568 109.858 59.4933 109.858 59.344V51.28C109.858 51.1307 109.932 51.056 110.082 51.056H110.69C110.839 51.056 110.914 51.1307 110.914 51.28V54.976ZM104.194 60.832C104.194 60.768 104.22 60.72 104.274 60.688C104.327 60.656 104.38 60.64 104.434 60.64H112.786C113.287 60.64 113.612 60.736 113.762 60.928C113.922 61.1093 114.002 61.4187 114.002 61.856V65.376C114.002 65.5253 113.927 65.6 113.778 65.6H113.122C112.972 65.6 112.898 65.5253 112.898 65.376V61.936C112.898 61.7867 112.871 61.696 112.818 61.664C112.775 61.6213 112.679 61.6 112.53 61.6H104.434C104.38 61.6 104.327 61.584 104.274 61.552C104.22 61.5093 104.194 61.4613 104.194 61.408V60.832ZM125.961 56.832H127.993V51.008C127.993 50.8587 128.067 50.784 128.217 50.784H128.825C128.974 50.784 129.049 50.8587 129.049 51.008V65.312C129.049 65.4613 128.974 65.536 128.825 65.536H128.217C128.067 65.536 127.993 65.4613 127.993 65.312V57.792H125.961V64.704C125.961 64.8533 125.886 64.928 125.737 64.928H125.129C124.979 64.928 124.905 64.8533 124.905 64.704V51.28C124.905 51.1307 124.979 51.056 125.129 51.056H125.737C125.886 51.056 125.961 51.1307 125.961 51.28V56.832ZM123.385 59.392C123.385 59.8293 123.31 60.2347 123.161 60.608C123.011 60.9813 122.803 61.3067 122.537 61.584C122.27 61.8613 121.945 62.08 121.561 62.24C121.187 62.4 120.771 62.48 120.313 62.48C119.843 62.48 119.417 62.4 119.033 62.24C118.659 62.08 118.339 61.8613 118.073 61.584C117.806 61.296 117.598 60.9653 117.449 60.592C117.31 60.2187 117.241 59.8187 117.241 59.392C117.241 58.9653 117.31 58.5653 117.449 58.192C117.598 57.808 117.806 57.4827 118.073 57.216C118.339 56.9387 118.659 56.72 119.033 56.56C119.417 56.4 119.843 56.32 120.313 56.32C120.771 56.32 121.187 56.4 121.561 56.56C121.945 56.72 122.27 56.9387 122.537 57.216C122.803 57.4933 123.011 57.8187 123.161 58.192C123.31 58.5653 123.385 58.9653 123.385 59.392ZM122.329 59.392C122.329 59.0933 122.281 58.816 122.185 58.56C122.099 58.304 121.966 58.08 121.785 57.888C121.614 57.696 121.406 57.5467 121.161 57.44C120.915 57.3227 120.633 57.264 120.313 57.264C119.673 57.264 119.171 57.4667 118.809 57.872C118.457 58.2773 118.281 58.784 118.281 59.392C118.281 59.6907 118.323 59.9733 118.409 60.24C118.505 60.496 118.638 60.72 118.809 60.912C118.99 61.104 119.203 61.2587 119.449 61.376C119.705 61.4827 119.993 61.536 120.313 61.536C120.633 61.536 120.915 61.4827 121.161 61.376C121.406 61.2587 121.614 61.104 121.785 60.912C121.966 60.72 122.099 60.496 122.185 60.24C122.281 59.9733 122.329 59.6907 122.329 59.392ZM124.025 54.992C124.025 55.1307 123.945 55.2 123.785 55.2H116.553C116.499 55.2 116.446 55.1787 116.393 55.136C116.35 55.0933 116.329 55.04 116.329 54.976V54.464C116.329 54.4 116.35 54.3467 116.393 54.304C116.446 54.2613 116.499 54.24 116.553 54.24H123.785C123.945 54.24 124.025 54.3093 124.025 54.448V54.992ZM122.329 52.432C122.329 52.5813 122.249 52.656 122.089 52.656H118.345C118.291 52.656 118.238 52.64 118.185 52.608C118.142 52.5653 118.121 52.512 118.121 52.448V51.904C118.121 51.84 118.142 51.7867 118.185 51.744C118.227 51.7013 118.275 51.68 118.329 51.68H122.089C122.249 51.68 122.329 51.7547 122.329 51.904V52.432ZM143.888 56.928C143.845 57.0347 143.744 57.0613 143.584 57.008C142.752 56.816 141.893 56.56 141.008 56.24C140.122 55.9093 139.264 55.5413 138.432 55.136C137.664 55.5307 136.832 55.904 135.936 56.256C135.04 56.5973 134.085 56.9067 133.072 57.184C132.922 57.2373 132.821 57.1947 132.768 57.056L132.576 56.544C132.512 56.384 132.554 56.288 132.704 56.256C133.472 56.0533 134.229 55.8133 134.976 55.536C135.733 55.248 136.453 54.944 137.136 54.624C137.829 54.2933 138.48 53.952 139.088 53.6C139.696 53.2373 140.234 52.8747 140.704 52.512C140.832 52.416 140.885 52.3307 140.864 52.256C140.853 52.1813 140.762 52.144 140.592 52.144H133.712C133.573 52.144 133.504 52.0747 133.504 51.936V51.376C133.504 51.248 133.573 51.184 133.712 51.184H141.024C141.44 51.184 141.765 51.232 142 51.328C142.245 51.4133 142.4 51.5307 142.464 51.68C142.538 51.8293 142.528 52.0053 142.432 52.208C142.336 52.4 142.17 52.6027 141.936 52.816C141.232 53.4453 140.4 54.0373 139.44 54.592C140.112 54.8907 140.842 55.1733 141.632 55.44C142.432 55.7067 143.21 55.9307 143.968 56.112C144.064 56.1333 144.117 56.16 144.128 56.192C144.138 56.224 144.128 56.272 144.096 56.336L143.888 56.928ZM137.824 65.44C137.77 65.44 137.722 65.4133 137.68 65.36C137.637 65.3173 137.616 65.264 137.616 65.2V60.016H131.408C131.344 60.016 131.285 59.9947 131.232 59.952C131.189 59.9093 131.168 59.8613 131.168 59.808V59.264C131.168 59.2 131.189 59.152 131.232 59.12C131.285 59.0773 131.344 59.056 131.408 59.056H145.008C145.061 59.056 145.114 59.0773 145.168 59.12C145.221 59.152 145.248 59.2 145.248 59.264V59.808C145.248 59.8613 145.221 59.9093 145.168 59.952C145.114 59.9947 145.061 60.016 145.008 60.016H138.72V65.2C138.72 65.264 138.698 65.3173 138.656 65.36C138.624 65.4133 138.576 65.44 138.512 65.44H137.824ZM150.822 51.904C150.822 52.608 150.806 53.264 150.774 53.872C150.753 54.48 150.7 55.056 150.614 55.6C150.678 56.0373 150.796 56.4907 150.966 56.96C151.137 57.4187 151.345 57.888 151.59 58.368C151.836 58.8373 152.118 59.3013 152.438 59.76C152.769 60.208 153.126 60.6293 153.51 61.024C153.553 61.0667 153.574 61.12 153.574 61.184C153.585 61.248 153.564 61.3013 153.51 61.344L153.062 61.776C153.009 61.8293 152.95 61.856 152.886 61.856C152.822 61.8453 152.769 61.8133 152.726 61.76C152.47 61.4827 152.214 61.1787 151.958 60.848C151.713 60.5173 151.478 60.176 151.254 59.824C151.03 59.4613 150.822 59.0987 150.63 58.736C150.449 58.3733 150.294 58.0267 150.166 57.696C149.889 58.5813 149.516 59.376 149.046 60.08C148.577 60.7733 147.99 61.456 147.286 62.128C147.18 62.2133 147.089 62.2187 147.014 62.144L146.502 61.664C146.406 61.5893 146.422 61.4933 146.55 61.376C147.116 60.8427 147.596 60.2773 147.99 59.68C148.396 59.0827 148.726 58.4107 148.982 57.664C149.238 56.9173 149.425 56.0747 149.542 55.136C149.66 54.1867 149.718 53.0987 149.718 51.872C149.718 51.7973 149.734 51.744 149.766 51.712C149.809 51.6693 149.857 51.648 149.91 51.648L150.614 51.68C150.753 51.68 150.822 51.7547 150.822 51.904ZM155.254 56.288V51.28C155.254 51.1307 155.329 51.056 155.478 51.056H156.086C156.236 51.056 156.31 51.1307 156.31 51.28V64.704C156.31 64.8533 156.236 64.928 156.086 64.928H155.478C155.329 64.928 155.254 64.8533 155.254 64.704V57.248H152.886C152.748 57.248 152.678 57.184 152.678 57.056V56.48C152.678 56.352 152.748 56.288 152.886 56.288H155.254ZM159.142 65.312C159.142 65.4613 159.068 65.536 158.918 65.536H158.31C158.161 65.536 158.086 65.4613 158.086 65.312V51.008C158.086 50.8587 158.161 50.784 158.31 50.784H158.918C159.068 50.784 159.142 50.8587 159.142 51.008V65.312ZM168.269 58.448C167.725 58.448 167.149 58.3893 166.541 58.272C165.944 58.144 165.389 57.9467 164.877 57.68C164.376 57.4027 163.96 57.0507 163.629 56.624C163.309 56.1867 163.149 55.6533 163.149 55.024C163.149 54.3947 163.309 53.8667 163.629 53.44C163.96 53.0027 164.376 52.6507 164.877 52.384C165.389 52.1067 165.944 51.9093 166.541 51.792C167.149 51.6747 167.725 51.616 168.269 51.616C168.824 51.616 169.405 51.6747 170.013 51.792C170.621 51.9093 171.171 52.1067 171.661 52.384C172.163 52.6507 172.573 53.0027 172.893 53.44C173.224 53.8667 173.389 54.3947 173.389 55.024C173.389 55.6533 173.224 56.1867 172.893 56.624C172.573 57.0507 172.163 57.4027 171.661 57.68C171.171 57.9467 170.621 58.144 170.013 58.272C169.405 58.3893 168.824 58.448 168.269 58.448ZM168.269 52.64C167.896 52.64 167.48 52.672 167.021 52.736C166.573 52.8 166.147 52.9227 165.741 53.104C165.347 53.2747 165.011 53.52 164.733 53.84C164.467 54.1493 164.333 54.5493 164.333 55.04C164.333 55.5307 164.467 55.9307 164.733 56.24C165.011 56.5493 165.347 56.7947 165.741 56.976C166.147 57.1467 166.573 57.264 167.021 57.328C167.48 57.392 167.896 57.424 168.269 57.424C168.621 57.424 169.027 57.392 169.485 57.328C169.944 57.264 170.371 57.1467 170.765 56.976C171.171 56.7947 171.512 56.5493 171.789 56.24C172.067 55.9307 172.205 55.5307 172.205 55.04C172.205 54.5493 172.067 54.1493 171.789 53.84C171.512 53.52 171.171 53.2747 170.765 53.104C170.371 52.9227 169.944 52.8 169.485 52.736C169.027 52.672 168.621 52.64 168.269 52.64ZM171.533 58.88C171.587 58.88 171.635 58.9067 171.677 58.96C171.72 59.0027 171.741 59.056 171.741 59.12V62.048H175.101C175.155 62.048 175.208 62.0693 175.261 62.112C175.315 62.144 175.341 62.192 175.341 62.256V62.8C175.341 62.8533 175.315 62.9013 175.261 62.944C175.208 62.9867 175.155 63.008 175.101 63.008H161.501C161.437 63.008 161.379 62.9867 161.325 62.944C161.283 62.9013 161.261 62.8533 161.261 62.8V62.256C161.261 62.192 161.283 62.144 161.325 62.112C161.379 62.0693 161.437 62.048 161.501 62.048H164.813V59.12C164.813 59.056 164.829 59.0027 164.861 58.96C164.904 58.9067 164.957 58.88 165.021 58.88H165.693C165.747 58.88 165.795 58.9067 165.837 58.96C165.88 59.0027 165.901 59.056 165.901 59.12V62.048H170.653V59.12C170.653 59.056 170.669 59.0027 170.701 58.96C170.744 58.9067 170.797 58.88 170.861 58.88H171.533ZM179.572 52C179.775 52 179.892 52.0213 179.924 52.064C179.956 52.096 179.972 52.2133 179.972 52.416L179.796 60.688C179.796 60.8693 179.78 60.976 179.748 61.008C179.716 61.0293 179.609 61.04 179.428 61.04H179.172C179.001 61.04 178.9 61.0293 178.868 61.008C178.847 60.976 178.831 60.8747 178.82 60.704L178.628 52.416C178.628 52.3093 178.628 52.2293 178.628 52.176C178.628 52.1227 178.639 52.0853 178.66 52.064C178.692 52.032 178.735 52.016 178.788 52.016C178.841 52.0053 178.921 52 179.028 52H179.572ZM178.532 63.232C178.532 63.0187 178.607 62.8373 178.756 62.688C178.905 62.528 179.087 62.448 179.3 62.448C179.513 62.448 179.695 62.528 179.844 62.688C180.004 62.8373 180.084 63.0187 180.084 63.232C180.084 63.4453 180.004 63.6267 179.844 63.776C179.695 63.9253 179.513 64 179.3 64C179.087 64 178.905 63.9253 178.756 63.776C178.607 63.6267 178.532 63.4453 178.532 63.232Z" fill="black"/>
</svg>
